<?xml version="1.0" encoding="UTF-8" standalone="no"?>
<svg
   xmlns:dc="http://purl.org/dc/elements/1.1/"
   xmlns:cc="http://creativecommons.org/ns#"
   xmlns:rdf="http://www.w3.org/1999/02/22-rdf-syntax-ns#"
   xmlns:svg="http://www.w3.org/2000/svg"
   xmlns="http://www.w3.org/2000/svg"
   xmlns:sodipodi="http://sodipodi.sourceforge.net/DTD/sodipodi-0.dtd"
   xmlns:inkscape="http://www.inkscape.org/namespaces/inkscape"
   viewBox="0 0 3364.7 3364.7"
   width="3365"
   height="3365"
   version="1.1"
   id="svg20"
   sodipodi:docname="instagramLogo.svg"
   inkscape:version="0.92.5 (2060ec1f9f, 2020-04-08)">
  <metadata
     id="metadata24">
    <rdf:RDF>
      <cc:Work
         rdf:about="">
        <dc:format>image/svg+xml</dc:format>
        <dc:type
           rdf:resource="http://purl.org/dc/dcmitype/StillImage" />
      </cc:Work>
    </rdf:RDF>
  </metadata>
  <sodipodi:namedview
     pagecolor="#ffffff"
     bordercolor="#666666"
     borderopacity="1"
     objecttolerance="10"
     gridtolerance="10"
     guidetolerance="10"
     inkscape:pageopacity="0"
     inkscape:pageshadow="2"
     inkscape:window-width="1848"
     inkscape:window-height="1016"
     id="namedview22"
     showgrid="false"
     inkscape:zoom="0.23944094"
     inkscape:cx="1682.5"
     inkscape:cy="1682.5"
     inkscape:window-x="72"
     inkscape:window-y="27"
     inkscape:window-maximized="1"
     inkscape:current-layer="svg20" />
  <defs
     id="defs12">
    <radialGradient
       id="0"
       cx="217.76"
       cy="3290.99"
       r="4271.92"
       gradientUnits="userSpaceOnUse"
       gradientTransform="matrix(0.4,0,0,0.4,1009.41,1009.41)">
      <stop
         offset=".09"
         stop-color="#fa8f21"
         id="stop2" />
      <stop
         offset=".78"
         stop-color="#d82d7e"
         id="stop4" />
    </radialGradient>
    <radialGradient
       id="1"
       cx="2330.61"
       cy="3182.95"
       r="3759.33"
       gradientUnits="userSpaceOnUse"
       gradientTransform="matrix(0.4,0,0,0.4,1009.41,1009.41)">
      <stop
         offset=".64"
         stop-color="#8c3aaa"
         stop-opacity="0"
         id="stop7" />
      <stop
         offset="1"
         stop-color="#8c3aaa"
         id="stop9" />
    </radialGradient>
  </defs>
  <path
     d="m 1350.69,2350.53 c -80.04,-3.64 -123.52,-16.96 -152.44,-28.24 -38.32,-14.92 -65.64,-32.68 -94.4,-61.4 -28.76,-28.72 -46.56,-56.04 -61.4,-94.36 -11.28,-28.92 -24.6,-72.4 -28.24,-152.44 -4,-86.52 -4.8,-112.48 -4.8,-331.68 0,-219.2 0.88,-245.12 4.76,-331.72 3.64,-80.04 17.04,-123.44 28.24,-152.44 14.92,-38.32 32.72,-65.64 61.4,-94.44 28.72,-28.72 56.04,-46.56 94.4,-61.4 28.92,-11.28 72.4,-24.6 152.44,-28.24 86.56,-3.96 112.56,-4.76 331.68,-4.76 219.2,0 245.12,0.88 331.72,4.76 80.04,3.64 123.44,17.04 152.44,28.24 38.32,14.84 65.64,32.68 94.4,61.4 28.76,28.72 46.48,56.08 61.4,94.4 11.28,28.92 24.6,72.4 28.24,152.44 3.96,86.6 4.76,112.52 4.76,331.72 0,219.12 -0.8,245.12 -4.76,331.72 -3.64,80.04 -17.04,123.52 -28.24,152.44 -14.92,38.32 -32.68,65.64 -61.4,94.36 -28.72,28.72 -56.08,46.48 -94.4,61.4 -28.92,11.28 -72.4,24.6 -152.44,28.24 -86.52,3.96 -112.52,4.76 -331.72,4.76 -219.12,0 -245.12,-0.76 -331.64,-4.76"
     id="path14"
     style="fill:url(#0);stroke-width:0.40000001"
     inkscape:connector-curvature="0" />
  <path
     d="m 1350.69,2350.53 c -80.04,-3.64 -123.52,-16.96 -152.44,-28.24 -38.32,-14.92 -65.64,-32.68 -94.4,-61.4 -28.76,-28.72 -46.56,-56.04 -61.4,-94.36 -11.28,-28.92 -24.6,-72.4 -28.24,-152.44 -4,-86.52 -4.8,-112.48 -4.8,-331.68 0,-219.2 0.88,-245.12 4.76,-331.72 3.64,-80.04 17.04,-123.44 28.24,-152.44 14.92,-38.32 32.72,-65.64 61.4,-94.44 28.72,-28.72 56.04,-46.56 94.4,-61.4 28.92,-11.28 72.4,-24.6 152.44,-28.24 86.56,-3.96 112.56,-4.76 331.68,-4.76 219.2,0 245.12,0.88 331.72,4.76 80.04,3.64 123.44,17.04 152.44,28.24 38.32,14.84 65.64,32.68 94.4,61.4 28.76,28.72 46.48,56.08 61.4,94.4 11.28,28.92 24.6,72.4 28.24,152.44 3.96,86.6 4.76,112.52 4.76,331.72 0,219.12 -0.8,245.12 -4.76,331.72 -3.64,80.04 -17.04,123.52 -28.24,152.44 -14.92,38.32 -32.68,65.64 -61.4,94.36 -28.72,28.72 -56.08,46.48 -94.4,61.4 -28.92,11.28 -72.4,24.6 -152.44,28.24 -86.52,3.96 -112.52,4.76 -331.72,4.76 -219.12,0 -245.12,-0.76 -331.64,-4.76"
     id="path16"
     style="fill:url(#1);stroke-width:0.40000001"
     inkscape:connector-curvature="0" />
  <path
     d="m 1517.11,1685.218 c 0,-92.044 74.596,-166.68 166.64,-166.68 92.044,0 166.68,74.636 166.68,166.68 0,92.044 -74.636,166.68 -166.68,166.68 -92.044,0 -166.64,-74.636 -166.64,-166.68 m -90.104,0 c 0,141.8 114.944,256.744 256.744,256.744 141.8,0 256.744,-114.944 256.744,-256.744 0,-141.8 -114.944,-256.744 -256.744,-256.744 -141.8,0 -256.74,114.936 -256.74,256.744 m 463.652,-266.924 a 60,60 0 1 0 60.024,-59.976 h -0.024 a 60.028,60.028 0 0 0 -60,59.976 M 1481.75,2092.21 c -48.748,-2.22 -75.244,-10.34 -92.852,-17.2 -23.344,-9.088 -40,-19.912 -57.512,-37.4 -17.512,-17.488 -28.352,-34.128 -37.4,-57.472 -6.864,-17.6 -14.984,-44.104 -17.2,-92.852 -2.424,-52.704 -2.908,-68.536 -2.908,-202.06 0,-133.524 0.524,-149.312 2.908,-202.06 2.22,-48.748 10.4,-75.2 17.2,-92.852 9.088,-23.344 19.912,-40 37.4,-57.512 17.488,-17.512 34.128,-28.352 57.512,-37.4 17.6,-6.864 44.104,-14.984 92.852,-17.2 52.704,-2.424 68.536,-2.908 202,-2.908 133.464,0 149.312,0.516 202.06,2.916 48.748,2.22 75.2,10.4 92.852,17.2 23.344,9.048 40,19.912 57.512,37.4 17.512,17.488 28.312,34.168 37.4,57.512 6.864,17.6 14.984,44.104 17.2,92.852 2.424,52.748 2.908,68.536 2.908,202.06 0,133.524 -0.484,149.312 -2.908,202.06 -2.22,48.748 -10.38,75.244 -17.2,92.852 -9.088,23.344 -19.912,40 -37.4,57.472 -17.488,17.472 -34.168,28.312 -57.512,37.4 -17.6,6.864 -44.104,14.984 -92.852,17.2 -52.704,2.424 -68.536,2.908 -202.06,2.908 -133.524,0 -149.312,-0.484 -202,-2.908 m -4.14,-903.972 c -53.228,2.424 -89.6,10.864 -121.364,23.224 -32.876,12.764 -60.744,29.888 -88.572,57.672 -27.828,27.784 -44.908,55.656 -57.672,88.572 -12.36,31.784 -20.8,68.136 -23.224,121.364 -2.464,53.312 -3.028,70.356 -3.028,206.14 0,135.784 0.564,152.828 3.028,206.14 2.424,53.232 10.864,89.58 23.224,121.364 12.764,32.876 29.848,60.8 57.672,88.572 27.824,27.772 55.656,44.872 88.572,57.672 31.824,12.36 68.136,20.8 121.364,23.224 53.34,2.424 70.356,3.028 206.14,3.028 135.784,0 152.828,-0.564 206.14,-3.028 53.232,-2.424 89.58,-10.864 121.364,-23.224 32.876,-12.8 60.744,-29.888 88.572,-57.672 27.828,-27.784 44.872,-55.696 57.672,-88.572 12.36,-31.784 20.84,-68.136 23.224,-121.364 2.424,-53.352 2.988,-70.356 2.988,-206.14 0,-135.784 -0.564,-152.828 -2.988,-206.14 -2.424,-53.232 -10.864,-89.6 -23.224,-121.364 -12.8,-32.876 -29.888,-60.744 -57.672,-88.572 -27.784,-27.828 -55.696,-44.908 -88.532,-57.672 -31.824,-12.36 -68.176,-20.84 -121.364,-23.224 -53.32,-2.436 -70.356,-3.028 -206.12,-3.028 -135.764,0 -152.84,0.564 -206.18,3.028"
     id="path18"
     inkscape:connector-curvature="0"
     style="fill:#ffffff;stroke-width:0.40000001" />
</svg>
